<?xml version="1.0" standalone="no"?>
<!DOCTYPE svg PUBLIC "-//W3C//DTD SVG 20010904//EN"
 "http://www.w3.org/TR/2001/REC-SVG-20010904/DTD/svg10.dtd">
<svg version="1.0" xmlns="http://www.w3.org/2000/svg"
 width="128.000000pt" height="65.000000pt" viewBox="0 0 128.000000 65.000000"
 preserveAspectRatio="xMidYMid meet">
<metadata>
Created by potrace 1.15, written by Peter Selinger 2001-2017
</metadata>
<g transform="translate(0.000000,65.000000) scale(0.100000,-0.100000)"
fill="#000000" stroke="none">
<path d="M521 636 c-8 -9 -11 -88 -9 -267 l3 -254 47 -3 c41 -3 49 -7 54 -28
3 -13 20 -35 36 -49 61 -51 174 -22 192 50 6 23 11 25 61 25 53 0 55 -1 69
-34 19 -47 51 -66 109 -66 42 0 54 5 83 34 19 19 34 41 34 50 0 11 9 16 29 16
16 0 35 7 42 16 11 14 10 21 -4 46 -12 22 -17 53 -17 117 l0 88 -64 61 c-54
52 -70 62 -100 62 l-36 0 0 63 c0 36 -5 68 -12 75 -19 19 -501 17 -517 -2z
m489 -101 l0 -75 48 0 c47 0 52 -3 105 -59 l57 -60 0 -84 c0 -47 3 -92 6 -101
5 -12 -1 -16 -24 -16 -26 0 -32 -5 -42 -35 -14 -42 -57 -69 -95 -59 -30 7 -65
49 -65 75 0 17 -9 19 -95 19 -87 0 -95 -2 -95 -19 0 -27 -39 -69 -71 -76 -31
-8 -86 33 -91 68 -3 19 -10 22 -50 25 l-48 3 0 235 0 234 230 0 230 0 0 -75z"/>
<path d="M722 588 c-7 -7 -12 -29 -12 -50 0 -37 -1 -38 -39 -38 -51 0 -63 -17
-59 -82 l3 -53 48 -3 c46 -3 47 -4 47 -37 0 -59 6 -65 70 -65 64 0 70 6 70 65
0 33 1 34 48 37 l47 3 3 53 c4 65 -8 82 -59 82 -38 0 -39 1 -39 38 0 50 -14
62 -70 62 -25 0 -51 -5 -58 -12z m88 -78 l0 -50 50 0 c49 0 50 -1 50 -30 0
-29 -1 -30 -50 -30 l-50 0 0 -50 c0 -49 -1 -50 -30 -50 -29 0 -30 1 -30 50 l0
50 -50 0 c-49 0 -50 1 -50 30 0 29 1 30 50 30 l50 0 0 50 c0 49 1 50 30 50 29
0 30 -1 30 -50z"/>
<path d="M1010 380 l0 -70 95 0 c93 0 95 0 95 24 0 15 -17 39 -50 70 -43 41
-54 46 -95 46 l-45 0 0 -70z"/>
<path d="M676 168 c-36 -51 -7 -108 54 -108 29 0 43 6 54 22 36 51 7 108 -54
108 -29 0 -43 -6 -54 -22z"/>
<path d="M1035 176 c-13 -9 -19 -26 -19 -51 0 -25 6 -42 19 -51 27 -20 79 -17
98 4 22 25 21 75 -1 95 -23 21 -71 22 -97 3z"/>
<path d="M5 440 c-16 -26 14 -30 226 -30 205 0 220 1 217 18 -3 15 -23 17
-220 20 -139 1 -219 -1 -223 -8z"/>
</g>
</svg>
