<?xml version="1.0" standalone="no"?>
<!DOCTYPE svg PUBLIC "-//W3C//DTD SVG 20010904//EN"
 "http://www.w3.org/TR/2001/REC-SVG-20010904/DTD/svg10.dtd">
<svg version="1.0" xmlns="http://www.w3.org/2000/svg"
 width="371.000000pt" height="253.000000pt" viewBox="0 0 371.000000 253.000000"
 preserveAspectRatio="xMidYMid meet" enable-background="new 0 0 500 500">

<g transform="translate(0.000000,253.000000) scale(0.100000,-0.100000)"
fill="#000000" stroke="none">
<path d="M1760 2520 c-67 -9 -79 -12 -555 -160 -209 -65 -542 -169 -740 -230
-245 -76 -371 -120 -393 -137 -51 -38 -72 -80 -72 -140 0 -51 4 -58 163 -295
90 -134 204 -299 252 -368 173 -243 186 -265 206 -331 13 -44 19 -87 17 -130
l-3 -64 -75 -40 c-216 -115 -237 -270 -54 -396 123 -84 407 -161 754 -205 263
-33 984 -27 1275 11 229 30 475 94 601 156 166 82 226 182 175 295 -21 45 -53
73 -151 129 -36 21 -71 45 -77 53 -14 18 -16 115 -4 178 5 29 76 140 258 405
377 549 366 531 371 592 5 69 -16 118 -65 151 -50 33 -1589 512 -1691 526 -80
11 -109 11 -192 0z m30 -261 l0 -132 -45 -83 c-25 -46 -53 -90 -61 -99 -12
-12 -41 -15 -143 -15 -194 0 -205 -20 -99 -195 l66 -109 -64 -103 c-80 -129
-84 -144 -49 -179 l27 -27 123 7 c94 5 127 3 135 -6 6 -7 32 -49 58 -93 45
-76 46 -82 50 -172 l4 -93 -528 2 -529 3 -192 280 c-301 438 -413 604 -413
615 0 5 10 16 23 25 13 8 370 122 793 254 707 219 794 246 832 250 9 1 12 -31
12 -130z m980 -122 c426 -131 783 -246 793 -255 10 -9 16 -24 14 -33 -4 -16
-564 -837 -595 -871 -14 -17 -53 -18 -539 -18 l-523 0 0 79 c0 75 3 84 46 168
70 132 56 124 200 117 122 -7 122 -7 148 19 14 14 26 34 26 44 0 10 -29 66
-65 124 -36 59 -65 111 -65 116 0 5 29 58 65 118 36 59 65 115 65 124 0 9 -7
27 -16 39 -14 21 -22 22 -149 22 -126 0 -135 1 -155 23 -60 63 -100 190 -100
318 0 112 3 120 43 112 18 -3 381 -114 807 -246z m-870 -252 c23 -41 47 -78
53 -82 7 -4 54 -6 106 -5 l93 3 -23 -38 c-12 -21 -33 -54 -46 -73 -32 -48 -29
-74 17 -151 22 -37 40 -70 40 -73 0 -3 -37 -6 -83 -6 -102 0 -114 -8 -163
-101 l-37 -70 -35 63 c-59 106 -62 108 -164 108 -48 0 -88 3 -88 6 0 4 18 35
40 70 22 35 40 76 40 92 0 15 -20 59 -45 100 l-45 73 93 -3 c112 -3 115 -1
163 94 19 37 36 68 38 68 3 0 23 -34 46 -75z m1040 -1125 l0 -60 -1085 0
-1085 0 0 60 0 60 1085 0 1085 0 0 -60z m82 -218 c60 -24 155 -90 171 -118 12
-22 -14 -48 -93 -94 -213 -123 -563 -182 -1170 -197 -474 -11 -895 36 -1159
129 -178 63 -273 127 -251 168 11 21 89 72 145 96 102 43 80 43 1215 41 l1085
-2 57 -23z"/>
<path d="M1774 1706 c-30 -30 -34 -40 -34 -86 0 -46 4 -56 34 -86 28 -28 42
-34 75 -34 82 0 127 46 125 128 -1 39 -6 50 -37 79 -31 27 -44 33 -83 33 -39
0 -51 -5 -80 -34z"/>
</g>
</svg>
