<?xml version="1.0" standalone="no"?>
<!DOCTYPE svg PUBLIC "-//W3C//DTD SVG 20010904//EN"
 "http://www.w3.org/TR/2001/REC-SVG-20010904/DTD/svg10.dtd">
<svg version="1.0" xmlns="http://www.w3.org/2000/svg"
 width="134.000000pt" height="116.000000pt" viewBox="0 0 134.000000 116.000000"
 preserveAspectRatio="xMidYMid meet">
<metadata>
Created by potrace 1.15, written by Peter Selinger 2001-2017
</metadata>
<g transform="translate(0.000000,116.000000) scale(0.100000,-0.100000)"
fill="#000000" stroke="none">
<path d="M249 1147 c-100 -28 -181 -97 -223 -186 -17 -38 -21 -65 -21 -156 0
-104 2 -114 32 -175 46 -92 85 -136 357 -397 214 -207 245 -233 274 -233 36 0
101 57 404 352 228 224 275 306 266 477 -9 178 -103 287 -276 321 -121 24
-216 0 -330 -84 l-63 -47 -57 45 c-31 25 -78 54 -105 66 -60 27 -193 35 -258
17z m248 -81 c28 -15 78 -50 112 -78 l62 -50 62 51 c118 97 211 126 330 102
69 -15 131 -55 168 -111 37 -56 52 -109 51 -189 0 -53 -7 -78 -37 -140 -34
-70 -56 -95 -274 -309 -130 -128 -251 -245 -268 -259 l-33 -25 -32 25 c-18 15
-139 131 -269 259 -290 287 -304 308 -304 463 0 118 16 158 91 224 61 54 118
72 214 68 60 -3 86 -9 127 -31z"/>
</g>
</svg>
