<?xml version="1.0" standalone="no"?>
<!DOCTYPE svg PUBLIC "-//W3C//DTD SVG 20010904//EN"
 "http://www.w3.org/TR/2001/REC-SVG-20010904/DTD/svg10.dtd">
<svg version="1.0" xmlns="http://www.w3.org/2000/svg"
 width="117.000000pt" height="131.000000pt" viewBox="0 0 117.000000 131.000000"
 preserveAspectRatio="xMidYMid meet">
<metadata>
Created by potrace 1.15, written by Peter Selinger 2001-2017
</metadata>
<g transform="translate(0.000000,131.000000) scale(0.100000,-0.100000)"
fill="#000000" stroke="none">
<path d="M294 1286 c-88 -41 -154 -144 -154 -241 0 -97 67 -202 156 -245 60
-29 162 -30 225 -3 55 24 108 76 135 129 27 55 27 183 0 238 -26 52 -79 104
-130 127 -61 28 -167 25 -232 -5z m235 -59 c126 -84 135 -255 18 -350 -164
-133 -410 32 -343 230 21 61 49 95 106 128 62 36 157 33 219 -8z"/>
<path d="M787 960 c-48 -26 -85 -83 -93 -143 -19 -137 117 -250 247 -205 52
18 87 48 109 93 41 84 17 186 -56 242 -50 37 -150 44 -207 13z m190 -72 c109
-109 -13 -285 -152 -218 -54 26 -91 92 -81 143 23 113 153 155 233 75z"/>
<path d="M316 749 c-147 -35 -272 -165 -305 -317 -6 -29 -11 -138 -11 -242 l0
-190 24 0 24 0 4 213 c5 231 9 255 71 345 65 96 204 160 321 148 125 -13 239
-95 294 -214 26 -55 27 -63 30 -275 l3 -217 26 0 25 0 -4 231 c-2 127 0 220 4
207 3 -13 6 -116 7 -230 l1 -208 25 0 25 0 0 208 c0 161 -4 221 -16 261 -20
70 -12 78 61 62 74 -17 133 -63 168 -130 26 -53 27 -59 27 -228 l0 -173 26 0
26 0 -4 192 c-3 210 -8 229 -73 306 -56 66 -187 106 -273 82 -41 -10 -43 -13
-38 -38 6 -27 6 -27 -10 3 -87 160 -280 246 -458 204z"/>
</g>
</svg>
