<?xml version="1.0" standalone="no"?>
<!DOCTYPE svg PUBLIC "-//W3C//DTD SVG 20010904//EN"
 "http://www.w3.org/TR/2001/REC-SVG-20010904/DTD/svg10.dtd">
<svg version="1.0" xmlns="http://www.w3.org/2000/svg"
 width="161.000000pt" height="174.000000pt" viewBox="0 0 161.000000 174.000000"
 preserveAspectRatio="xMidYMid meet">
<metadata>
Created by potrace 1.15, written by Peter Selinger 2001-2017
</metadata>
<g transform="translate(0.000000,174.000000) scale(0.100000,-0.100000)"
fill="#000000" stroke="none">
<path d="M191 1729 c-13 -5 -37 -19 -54 -32 -18 -12 -49 -30 -70 -39 -64 -29
-67 -45 -67 -391 0 -241 3 -315 16 -362 39 -151 161 -274 325 -327 l69 -22 0
-55 c0 -205 88 -349 268 -439 287 -143 655 -23 765 250 19 48 21 77 25 293 l4
239 43 38 c59 52 86 112 87 190 0 75 -20 129 -65 176 -54 57 -102 77 -187 77
-88 0 -137 -22 -190 -81 -44 -51 -60 -93 -60 -160 0 -89 18 -133 77 -191 l53
-52 0 -211 c0 -235 -6 -259 -71 -314 -70 -60 -106 -71 -219 -71 -89 0 -111 3
-146 22 -106 57 -144 115 -144 221 l0 70 48 12 c169 42 322 198 352 359 5 29
10 186 10 348 0 335 -3 352 -67 381 -21 10 -57 30 -80 46 -97 65 -222 36 -273
-65 -22 -42 -26 -112 -9 -156 23 -62 95 -113 159 -113 l30 0 0 -200 c0 -231
-3 -245 -74 -307 -59 -52 -131 -78 -216 -77 -86 1 -158 26 -216 77 -71 62 -74
76 -74 307 l0 200 30 0 c72 0 153 66 166 135 17 94 -19 176 -96 215 -41 21
-109 25 -149 9z m123 -114 c36 -33 36 -86 0 -122 -23 -23 -30 -25 -77 -18
-104 14 -92 48 -92 -270 l0 -280 30 -54 c35 -63 89 -110 171 -148 55 -26 68
-28 184 -28 116 0 129 2 184 28 82 38 136 85 171 148 l30 54 3 279 c2 153 1
285 -2 293 -5 11 -13 10 -45 -7 -54 -27 -96 -26 -126 5 -35 34 -34 88 1 120
37 34 75 32 118 -6 20 -17 48 -34 63 -38 l28 -7 0 -315 0 -314 -27 -58 c-50
-106 -169 -194 -296 -219 -31 -6 -63 -15 -69 -21 -20 -15 -17 -211 3 -270 9
-26 36 -69 60 -96 87 -96 191 -136 338 -129 118 6 188 33 262 100 97 90 99 94
102 382 2 137 1 260 -3 273 -3 13 -22 31 -46 43 -73 38 -103 120 -71 193 61
139 249 124 293 -23 10 -33 9 -47 -5 -85 -10 -25 -29 -53 -43 -63 -13 -9 -37
-27 -53 -40 l-29 -23 -3 -257 -3 -257 -28 -56 c-30 -63 -112 -146 -175 -178
-136 -69 -327 -67 -452 6 -71 42 -145 118 -171 176 -19 43 -24 73 -27 179 l-4
127 -70 16 c-141 32 -248 108 -305 217 l-28 53 0 319 0 320 28 7 c15 4 43 21
63 38 43 38 81 40 118 6z"/>
<path d="M1292 1177 c-74 -42 -75 -164 0 -203 96 -50 200 34 169 138 -20 66
-107 99 -169 65z"/>
</g>
</svg>
