<svg xmlns="http://www.w3.org/2000/svg" xmlns:xlink="http://www.w3.org/1999/xlink" viewBox="0 0 640 600"><defs><style>.a{fill:#675f76;}.b{fill:#463e52;}.c,.d,.r,.s{fill:none;stroke-linecap:round;stroke-miterlimit:10;stroke-width:10px;}.c,.d{stroke:#ec5e44;}.d{stroke-dasharray:0 20.07;}.e{fill:#9990ab;}.f,.g{fill:#dbd3e9;}.f{opacity:0.5;}.h{fill:#c9c2e1;}.i{fill:url(#a);}.j{fill:#b9b2d0;}.k{fill:#777088;}.l{fill:#fff;}.m{fill:#ec5e44;}.n{fill:#342c3e;}.o{fill:url(#b);}.p{fill:url(#c);}.q{fill:#564f64;}.r,.s{stroke:#dbd3e9;}.s{stroke-dasharray:0 18.93;}</style><linearGradient id="a" x1="403.91" y1="382.01" x2="350.83" y2="489.56" gradientTransform="matrix(-1, 0, 0, 1, 640, 0)" gradientUnits="userSpaceOnUse"><stop offset="0" stop-color="#fff" stop-opacity="0"/><stop offset="0.22" stop-color="#fff" stop-opacity="0.01"/><stop offset="0.39" stop-color="#fff" stop-opacity="0.05"/><stop offset="0.55" stop-color="#fff" stop-opacity="0.12"/><stop offset="0.7" stop-color="#fff" stop-opacity="0.21"/><stop offset="0.84" stop-color="#fff" stop-opacity="0.33"/><stop offset="0.98" stop-color="#fff" stop-opacity="0.48"/><stop offset="1" stop-color="#fff" stop-opacity="0.5"/></linearGradient><linearGradient id="b" x1="-357.4" y1="394.17" x2="-258.94" y2="151.16" gradientTransform="matrix(-1, 0, 0, 1, 6.35, 0)" xlink:href="#a"/><linearGradient id="c" x1="441.43" y1="104.35" x2="62.07" y2="104.35" gradientTransform="matrix(1, 0, 0, 1, 0, 0)" xlink:href="#a"/></defs><title>Not fine</title><path class="a" d="M510.71,325.89c14.95-8.63,39.1-8.67,54-.1,5,2.87,8.27,6.35,9.89,10,3.22-7.28-.07-15.3-9.89-21-14.85-8.58-39-8.53-54,.1-9.94,5.74-13.29,13.83-10.06,21.13C502.29,332.35,505.65,328.81,510.71,325.89Z"/><path class="b" d="M564.67,325.92c-14.85-8.58-39-8.53-54,.1-5.06,2.92-8.41,6.46-10.06,10.19,1.63,3.68,4.92,7.15,9.89,10,14.85,8.58,39,8.53,54-.1,5.06-2.92,8.41-6.46,10.06-10.19C572.93,332.27,569.64,328.79,564.67,325.92Z"/><line class="c" x1="401.18" y1="359.46" x2="401.18" y2="359.46"/><path class="d" d="M418.56,349.43l80.87-46.69a25.45,25.45,0,0,1,38.18,22v3.8"/><line class="c" x1="537.6" y1="338.62" x2="537.6" y2="338.62"/><path class="e" d="M424.73,214.49V473.82a5.35,5.35,0,0,1-1.7,4.37c4.73-2.79,21.49-14.39,21.64-14.54a5.73,5.73,0,0,0,1.31-4V200.31a14.26,14.26,0,0,0-1.71-6.35l-22.08,12.75A15.08,15.08,0,0,1,424.73,214.49Zm-3.08,264.35,0.25-.06,0.08,0Z"/><path class="f" d="M156.56,433.17L277.92,363.1a1.6,1.6,0,0,1,1.6,0l127.1,73.3a1.6,1.6,0,0,1,0,2.77L285.26,509.24a1.6,1.6,0,0,1-1.6,0l-127.1-73.3A1.6,1.6,0,0,1,156.56,433.17Z"/><path class="f" d="M110.93,342.33l-19.22,11.1a2.23,2.23,0,0,0,0,3.86L421.25,547.55a2.23,2.23,0,0,0,2.23,0l19.22-11.1a2.23,2.23,0,0,0,0-3.86L113.16,342.33A2.23,2.23,0,0,0,110.93,342.33Z"/><path class="g" d="M154.16,426.43a15.32,15.32,0,0,1,7-12l64.58-36.8a37.33,37.33,0,0,0,8.17-6.54c3.48-3.63,138.95,75.61,138.95,75.61l-86.94,59S156.7,431.25,155.76,430.6C154.42,429.66,154.16,428.37,154.16,426.43Z"/><polygon class="h" points="213.84 384.38 346.57 461.01 324.8 475.79 190.01 397.96 213.84 384.38"/><path class="i" d="M154.16,426.43a15.32,15.32,0,0,1,7-12l64.58-36.8a37.33,37.33,0,0,0,8.17-6.54c3.48-3.63,138.95,75.61,138.95,75.61l-86.94,59S156.7,431.25,155.76,430.6C154.42,429.66,154.16,428.37,154.16,426.43Z"/><path class="j" d="M285.87,505.72S156.7,431.25,155.76,430.6c-1.34-.94-1.61-2.23-1.61-4.17a15,15,0,0,1,3.2-8.56c21.55,12.49,96.91,56,139.39,80.47Z"/><path class="e" d="M291.23,505.51l64.58-36.8c7.42-4.29,14.47-10.94,20.35-19.07,2.9-4-6.27-10.82-8.08-8.34a41.19,41.19,0,0,1-12.27,11.44l-64.58,36.8a15.32,15.32,0,0,0-7,12C284.27,506,287.38,507.73,291.23,505.51Z"/><polygon class="k" points="320.02 489.1 320.02 473.14 343.95 459.5 343.95 475.79 320.02 489.1"/><polygon class="l" points="106.84 278.97 406.35 451.89 406.35 216.17 106.84 43.24 106.84 278.97"/><path class="m" d="M127.79,79.53L385.4,228.26V415.61L127.79,266.87V79.53m-21-36.29V279L406.35,451.89V216.17L106.84,43.24h0Z"/><path class="n" d="M106.84,43.24L406.35,216.17V451.89L106.84,279V43.24ZM96.56,17.18c-4-2.31-7.26-.46-7.26,4.14V280.64a16,16,0,0,0,7.26,12.52L416.63,478c4,2.31,7.26.46,7.26-4.14V214.49A16,16,0,0,0,416.63,202Z"/><polygon class="g" points="138.03 233.66 374.57 370.22 374.57 233.11 138.03 96.54 138.03 233.66"/><path class="b" d="M305.55,359.89l61.39,35.44c4.22,2.43,7.63-.15,7.63-5.77h0c0-5.62-3.42-12.15-7.63-14.58l-61.39-35.44c-4.22-2.43-7.63.15-7.63,5.77h0C297.92,350.93,301.33,357.46,305.55,359.89Z"/><path class="g" d="M91,16.94c1.33-1,22-14.63,22.24-14.73a5.54,5.54,0,0,1,4.56.78L437.88,187.79a15.26,15.26,0,0,1,5.55,6.17l-22.08,12.75a14.46,14.46,0,0,0-4.72-4.73L96.56,17.18C94.32,15.89,92.31,15.9,91,17Z"/><polygon class="o" points="106.84 43.24 406.35 216.17 406.35 451.89 106.84 43.24"/><path class="p" d="M91,16.94c1.33-1,22-14.63,22.24-14.73a5.54,5.54,0,0,1,4.56.78L437.88,187.79a15.26,15.26,0,0,1,5.55,6.17l-22.08,12.75a14.46,14.46,0,0,0-4.72-4.73L96.56,17.18C94.32,15.89,92.31,15.9,91,17Z"/><polygon class="g" points="0 455.58 202.6 572.56 273.52 531.61 70.92 414.64 0 455.58"/><path class="j" d="M0,455.58v9.92l202.6,117v-9.92Z"/><path class="e" d="M202.6,582.48l70.92-40.95v-9.92L202.6,572.56v9.92Z"/><path class="q" d="M143.51,491v-2.3l-16.7,8.2-19.07-11v2.3l19.07,11,16.7-8.2h0Zm-38.69-28.19,19.36,11.62,14.61-8v-2.3l-14.61,8-19.36-11.62v2.3h0Zm-22.65-13.6,18.5,11.11,13.76-7.94V450L100.66,458l-18.5-11.11v2.3h0ZM166,504.47v-2.3l-15.55,8.35-19.37-11.18v2.3l19.37,11.18L166,504.47h0Zm12.26,22.1v2.3L197.56,540l13.76-8.34v-2.3l-13.76,8.34-19.32-11.15h0ZM56.62,458.65l17.12-9.57v-2.3l-17.12,9.57L37.34,445.22v2.3l19.27,11.13h0Zm16.94-12-0.33-.2,0.33,0.2h0Zm0.18,0.11-0.18-.11,0.18,0.11h0Zm80.93,68.48L174,526.43,188.45,518v-2.3L174,524.12,154.66,513v2.3h0Zm33.76,0.37-0.54-.32,0.54,0.32h0Zm0,0,0,0,0,0h0Zm-4.71-2.83-0.22-.13,0.22,0.13h0Zm-10.11-6.07-0.87-.52,0.87,0.52h0Zm19.83,33.46-12.33,7.47-19.75-11.21v2.3L181.12,550l12.33-7.47v-2.3h0Zm40.81,2.94-0.36-.22,0.36,0.22h0ZM196.77,518l18.66,11.2,15.66-9.49v-2.3l-15.66,9.49-18.66-11.2V518h0Zm22.81,11.39v2.3L238.4,543l16-9.81v-2.3l-16,9.81-18.81-11.29h0Zm-17.79,10.78v2.3l19.28,11.13,13.24-8.11v-2.3l-13.24,8.11-19.28-11.13h0ZM217,553.8l-12.07,7.39L185.39,550.1v2.3l19.53,11.09L217,556.1v-2.3h0ZM75.86,472.31l-13.62,7.87L42.57,469v2.3l19.67,11.17,13.62-7.87v-2.3h0Zm-37.56-5.72-19.4-11v2.3l19.4,11,14-7.85v-2.3l-14,7.85h0Zm131.54,60L157.11,534,66.5,482.6v2.3l90.61,51.44,12.73-7.47v-2.3h0Zm-109-67.78v2.3l19.21,11.09,16.39-9.46v-2.3l-16.39,9.46L60.85,458.79h0Zm59,18v-2.3l-16.35,8.95L84.3,472.33v2.3l19.21,11.09,16.35-8.95h0ZM59.08,435.33L78,446.7l13.52-7.56v-2.3L78,444.39,59.08,433v2.3h0Zm69.25,41.58L148,488.74l15.89-7.81v-2.3L148,486.44,128.33,474.6v2.3h0Zm23.88,14.34,18.13,10.89L186,493.7v-2.3l-15.7,8.43-18.13-10.89v2.3h0Zm22.29,13.38,18.13,10.88,15.46-9.08v-2.3l-15.46,9.08-18.13-10.88v2.3h0Z"/><path class="k" d="M190.28,493.84l-15.79,8.47,18.13,10.88,15.46-9.08-17.81-10.28h0ZM143,466.56l-14.69,8L148,486.44l15.88-7.81L143,466.56h0ZM124,477l-16.27,8.9,19.07,11,16.7-8.2L124,477h0Zm0.17-4.85,14.61-8-20.13-11.62-13.84,8,19.36,11.62h0Zm46,32.55L154.66,513,174,524.12l14.44-8.47-18.31-11h0Zm-22.47-13.49-16.61,8.16,19.37,11.18L166,502.16l-18.32-11h0Zm20.51-10.08-16,7.85,18.13,10.89L186,491.4l-17.86-10.31h0Zm-64.68,2.33,16.35-8.95-19.25-11.56L84.3,472.33l19.21,11.09h0Zm-70.43-35.8-14.18,8,19.4,11,14-7.85L33.08,447.62h0Zm21.74-12.2-17.47,9.8,19.27,11.13,17.12-9.57L54.81,435.42h0Zm1.76,25.77-14,7.83,19.67,11.17,13.62-7.87L56.58,461.18h0Zm39.19-21.9-13.6,7.6L100.66,458,114.42,450,95.77,439.28h0Zm-17.88,10-17,9.52,19.21,11.09,16.39-9.46L77.89,449.27h0Zm-5.7-23.61L59.08,433,78,444.39l13.52-7.56L72.19,425.67h0Zm108.93,122,12.33-7.47L174.07,529l-12.69,7.45,19.75,11.21h0Zm34.31-20.79,15.66-9.49-18.77-10.84-15.54,9.12,18.66,11.2h0Zm-17.87,10.83,13.76-8.34L192.6,518.14l-14.36,8.43,19.32,11.15h0Zm23.51,13.57,13.24-8.11-18.84-11.31-13.68,8.29,19.28,11.13h0ZM66.5,482.6L157.11,534l12.73-7.47L80.09,474.76,66.5,482.6h0Zm171.9,58.07,16-9.81-19.09-11-15.74,9.54,18.81,11.29h0Zm-33.48,20.51L217,553.8l-19.3-11.14-12.29,7.45,19.53,11.09h0Z"/><polygon class="g" points="286.12 555.02 273.17 547.55 258.02 556.3 258.02 557.82 256.2 558.87 254.88 558.11 229.28 572.89 258.37 589.68 302.26 564.34 289.27 556.85 287.94 557.64 286.12 556.58 286.12 555.02"/><polygon class="e" points="258.37 589.68 283.97 574.9 283.97 576.43 287.11 574.62 287.11 573.09 302.26 564.34 302.26 573.09 258.37 598.43 258.37 589.68"/><polygon class="j" points="229.28 572.89 258.37 589.68 258.37 598.43 229.28 581.63 229.28 572.89"/><polygon class="h" points="256.2 558.87 283.97 574.9 283.97 576.43 287.11 574.62 258.02 557.82 256.2 558.87"/><polygon class="h" points="286.09 556.59 270.98 565.31 274.14 567.13 274.14 565.6 287.94 557.64 286.09 556.59"/><polygon class="e" points="270.98 563.78 270.98 565.31 258.02 557.82 258.02 556.3 270.98 563.78"/><polygon class="j" points="286.09 555.06 286.09 556.59 270.98 565.31 270.98 563.78 286.09 555.06"/><polygon class="e" points="274.14 565.6 274.14 567.13 287.11 574.62 287.11 573.09 274.14 565.6"/><line class="r" x1="615.99" y1="376.82" x2="615.99" y2="376.82"/><path class="s" d="M599.59,386.28L575.79,400a25.45,25.45,0,0,1-38.18-22v-4.37"/><line class="r" x1="537.6" y1="364.15" x2="537.6" y2="364.15"/><polygon class="g" points="628.12 390.1 628 367.91 589.56 367.84 628.12 390.1"/><path class="b" d="M157.46,129.19L176,139.9v6l-12.89-7.44V146l11.72,6.77v5.76l-11.72-6.77v8.31L176,167.52v6l-18.55-10.71V129.19Z"/><path class="b" d="M177.69,149l5.65,3.26,5.53,19.57,0.08,0,5.53-13.19,5.57,3.21-8.87,20.33-4.61-2.66Z"/><path class="b" d="M220.17,194.08c-1.84,2-4.56,3-9.17.38-6.11-3.53-10.51-11.25-10.51-19.52s4.48-10.86,10.26-7.53,10.17,11.06,10.17,19.32v1.87L206,180c0.17,4,1.92,7.16,4.9,8.88s4.35,0.3,5.44-.84Zm-4.52-13.18a9.9,9.9,0,0,0-4.9-8c-2.76-1.6-4.52-.26-4.73,2.46Z"/><path class="b" d="M224.71,176.19l5.15,3v2.69l0.08,0c0.84-1.39,2.59-1.67,4.56-.54a8.61,8.61,0,0,1,2,1.64l-0.84,5.57A8.93,8.93,0,0,0,234,187.2c-2.34-1.35-3.81-.47-3.81,3.61v14l-5.44-3.14V176.19Z"/><path class="b" d="M246.88,213.2L238,183.86l5.53,3.19,5.73,20.55,0.08,0,5.74-13.93,5.53,3.19-12.77,28.89-5.4-3.12Z"/><path class="b" d="M265.56,205.05l-3.43-2v-5.28l3.56,2.05V193.6l5.15,3v6.25l5.61,3.24v5.28l-5.53-3.19v10.52c0,2.54.46,3.92,3,5.37l1.8,1v6l-2.3-1.33c-6.2-3.58-7.83-7.55-7.83-13.6v-11.1Z"/><path class="b" d="M279.88,198.43l5.44,3.14v12.06l0.08,0c0.84-1.1,3.1-1.38,5.4-.05a15.93,15.93,0,0,1,7.75,13.69v17l-5.44-3.14V225.57a8.09,8.09,0,0,0-3.94-7.12c-2.64-1.52-3.85-.25-3.85,2.2v16l-5.44-3.14V198.43Z"/><path class="b" d="M303.46,212l5.44,3.14v5.91L303.46,218V212Zm0,9.61,5.44,3.14v25.46l-5.44-3.14V221.65Z"/><path class="b" d="M313.9,227.68l5.23,3v2.45l0.08,0c1.13-1,3.39-1.21,5.86.21a15.94,15.94,0,0,1,7.87,14.05v16.67L327.5,261V245.86c0-3.31-.92-5.82-3.89-7.53-2.68-1.55-4.27-.54-4.27,2.39v15.56l-5.44-3.14V227.68Z"/><path class="b" d="M342.21,271.45c1.26,3.46,2.68,5.68,5.32,7.2s4.69,1.27,4.69-2.62v-3.22l-0.08,0c-0.8,1.13-3,1.46-5.53,0-5.44-3.14-10-10.56-10-19.25s4.94-10.6,10-7.7a14.92,14.92,0,0,1,5.86,6.55l0.08,0v-2.45l5.19,3V278.4c0,7.73-4.44,9-10.13,5.68a21,21,0,0,1-9.38-11.75Zm10-11.56a9.8,9.8,0,0,0-4.77-7.94c-3.06-1.76-5.44-.6-5.44,4.69s2.39,9.21,5.44,11,4.77,0.35,4.77-2.48v-5.24Z"/><path class="m" d="M157,178.63l5.44,3.14v5.91L157,184.53v-5.91Zm0,9.61,5.44,3.14v25.46L157,213.69V188.23Z"/><path class="m" d="M170.86,211.82a10.3,10.3,0,0,0,5,8.21c2.68,1.55,4.4,1.48,4.4-.3s-1.46-2.91-6-7c-4.86-4.39-7.45-7.86-7.45-11.8s2.93-6.09,8.37-2.95a19.21,19.21,0,0,1,9.34,12.88l-4.52-1a10.07,10.07,0,0,0-4.77-6.7c-2.22-1.28-3.47-.9-3.47.35,0,1.44.84,2.31,6.66,7.54,5.48,4.9,6.7,8.09,6.7,11.65s-2.68,6.38-9,2.71a20.39,20.39,0,0,1-10.09-15Z"/><path class="m" d="M199.75,212.89l5.23,3v2.45l0.08,0c1.13-1,3.39-1.21,5.86.21a15.94,15.94,0,0,1,7.87,14.06v16.67l-5.44-3.14V231.07c0-3.31-.92-5.82-3.89-7.53-2.68-1.55-4.27-.54-4.27,2.39v15.56l-5.44-3.14V212.89Z"/><path class="m" d="M222.41,238.7c0-8.69,4.86-10.65,10.38-7.46s10.38,10.75,10.38,19.44-4.56,10.82-10.38,7.46S222.41,247.39,222.41,238.7Zm15.41,8.89c0-5.09-2.05-9-5-10.73s-5-.26-5,4.93,2,9,5,10.73S237.82,252.69,237.82,247.59Z"/><path class="m" d="M248.07,246.07l-3.43-2V238.8l3.56,2.05v-6.25l5.15,3v6.24l5.61,3.24v5.28l-5.53-3.19v10.52c0,2.55.46,3.92,3,5.37l1.8,1v6l-2.3-1.33c-6.2-3.58-7.83-7.55-7.83-13.6v-11.1Z"/><path class="b" d="M274.73,261.46l-3.43-2V254.2l3.56,2.05v-3.6c0-4.56,2.26-4.7,5.82-2.64l4.35,2.51V258l-3.22-1.86c-1.34-.77-1.8-0.51-1.8,1v2.07l5.61,3.24v5.28l-5.44-3.14v20.17l-5.44-3.14V261.46Z"/><path class="b" d="M288.09,254.28l5.44,3.14v5.91l-5.44-3.14v-5.91Zm0,9.61,5.44,3.14v25.46l-5.44-3.14V263.89Z"/><path class="b" d="M298.52,269.91l5.23,3v2.45l0.08,0c1.13-1,3.39-1.21,5.86.21a15.94,15.94,0,0,1,7.87,14.05v16.67l-5.44-3.14V288.1c0-3.31-.92-5.82-3.89-7.53C305.55,279,304,280,304,282.95v15.56l-5.44-3.14V269.91Z"/><path class="b" d="M340.86,314.87c-1.84,2-4.56,3-9.17.38-6.11-3.53-10.51-11.25-10.51-19.52s4.48-10.86,10.26-7.53,10.17,11.06,10.17,19.32v1.87l-14.9-8.6c0.17,4,1.92,7.16,4.9,8.88s4.35,0.3,5.44-.84Zm-4.52-13.18a9.9,9.9,0,0,0-4.9-8c-2.76-1.59-4.52-.26-4.73,2.46Z"/><path class="b" d="M345.16,315.48l6.24,3.6v6.82l-6.24-3.6v-6.82Z"/></svg>
